<svg xmlns="http://www.w3.org/2000/svg" width="900" height="900" viewBox="20 20 260 270">
  <filter id="blur-2"><feGaussianBlur stdDeviation="2"/></filter>
  <filter id="blur-4"><feGaussianBlur stdDeviation="10"/></filter>
  <path fill="#262262" d="m40.54 65.7 16.7 118.82s13.22 94.09 109.77 80.52c96.55-13.57 83.33-107.66 83.33-107.66l-11.33-80.6-43.84-32.82L40.54 65.7z" filter="url(#blur-4)" opacity=".5"/>
  <linearGradient id="gradient-dark" x1="37.3563" x2="232.3563" y1="157.3043" y2="157.3043" gradientTransform="translate(-3.386 21.5781)" gradientUnits="userSpaceOnUse">
    <stop offset="0" stop-color="#3a84b5"/>
    <stop offset="1" stop-color="#331c4d"/>
  </linearGradient>
  <linearGradient id="gradient-color" x1="45.666" x2="237.2537" y1="48.6827" y2="193.0544" gradientTransform="translate(-3.386 21.5781)" gradientUnits="userSpaceOnUse">
    <stop offset="0" stop-color="#7eb0de"/>
    <stop offset="1" stop-color="#3b54a5"/>
  </linearGradient>
  <linearGradient id="gradient-light" x1="72.346" x2="224.5537" y1="20.9733" y2="222.9598" gradientTransform="translate(-3.386 21.5781)" gradientUnits="userSpaceOnUse">
    <stop offset="0" stop-color="#fff"/>
    <stop offset="1" stop-color="#edf4fb"/>
  </linearGradient>
  <clipPath id="c">
    <path d="m249.89 82.74 8.96 63.34s13.22 94.09-83.33 107.66-109.77-80.52-109.77-80.52L49.05 54.4l137.57-19.33 63.27 47.67z"/>
  </clipPath>
  <path fill="url(#gradient-dark)" d="m40.54 65.7 16.7 118.82s13.22 94.09 109.77 80.52c96.55-13.57 83.33-107.66 83.33-107.66l-11.33-80.6-43.84-32.82L40.54 65.7z"/>
  <path fill="#262262" d="m242.15 27.27 16.7 118.82s13.22 94.09-83.33 107.66-109.77-80.53-109.77-80.53L49.05 54.4" clip-path="url(#c)" filter="url(#blur-2)" opacity=".5"/>
  <path fill="url(#gradient-color)" stroke="url(#gradient-light)" stroke-miterlimit="10" stroke-width="10" d="m54 53.71 16.26 115.68s7.92 92.3 104.47 78.73 78.73-104.47 78.73-104.47L237.2 27.96" clip-path="url(#c)"/>
  <path fill="url(#gradient-light)" d="M213.14 110.12c-.02.04-.03.07-.05.11-1.04 1.97-2.81 3.45-4.92 4.13l-28.55 9.86-2.63.89c-2.97.93-4.46 1.32-3.68 5.68.47 3.37 1.5 7.01 2.55 10.82 2.05 7.22 4.37 14.35 6.96 21.39l3.41 7.09 14.13 27.09c2.11 4.2.42 9.32-3.79 11.44-1.87.94-4.02 1.16-6.05.61-2.12-.61-3.93-2.02-5.03-3.94l-21.04-39.54-2.11-2.8-1.26 3.27-.02-.17-9.16 43.78c-.48 2.2-1.82 4.12-3.72 5.34-3.96 2.53-9.23 1.38-11.77-2.59-1.19-1.86-1.61-4.1-1.18-6.26l6.36-30.66c.54-2.31.9-4.66 1.08-7.03.13-2.41.14-4.82.02-7.23l-1.03-13.45-1.22-12.39c-.62-4.39-1.68-4.58-5.34-4.93l-.84.12-31.17-1.47c-2.26-.11-4.38-1.11-5.9-2.78-3.13-3.52-2.81-8.9.7-12.03 1.62-1.44 3.74-2.21 5.91-2.15l33.58 1.47 3.93-.21c4.11.03 8.21-.21 12.29-.69 5.01-.82 9.96-1.92 14.85-3.29l4.32-1.12 30.07-10.08c2.09-.74 4.39-.63 6.41.3 4.21 2.09 5.95 7.19 3.89 11.42zm-59.77-4.76c8.19-1.19 13.87-8.8 12.67-17-1.19-8.19-8.8-13.87-17-12.67-3.93.57-7.47 2.68-9.84 5.86-2.39 3.19-3.4 7.2-2.83 11.14 1.2 8.2 8.81 13.87 17 12.67z"/>
  <path fill="url(#gradient-dark)" d="m249.89 82.74-63.26-47.67 6.1 43.4s.38 6.2 5.31 9.15c4.94 2.95 10.04 1 10.04 1l41.81-5.88z"/>
  <path fill="url(#gradient-light)" d="m250.14 82.71-63.26-47.67L201.41 77s2.21 4.96 7.14 7.9c4.94 2.95 13.85 1.7 13.85 1.7l27.74-3.89z"/>
</svg>